<?xml version="1.0" encoding="utf-8"?>
<!-- Generator: Adobe Illustrator 25.0.1, SVG Export Plug-In . SVG Version: 6.00 Build 0)  -->
<svg version="1.1" id="Layer_1" xmlns="http://www.w3.org/2000/svg" xmlns:xlink="http://www.w3.org/1999/xlink" x="0px" y="0px"
	 viewBox="0 0 467 129" style="enable-background:new 0 0 467 129;" xml:space="preserve">
<style type="text/css">
	.st0{fill:#ffffff;}
</style>
<g>
	<path class="st0" d="M45,76.2v-22H14c-7.7,0-14,6.3-14,14v44c0,7.7,6.3,14,14,14h80c7.7,0,14-6.3,14-14v-22H59
		C51.3,90.2,45,83.9,45,76.2z"/>
	<path class="st0" d="M139,18.2H59c-7.7,0-14,6.3-14,14v22h49c7.7,0,14,6.3,14,14v22h21c3.5,4.5,6.2,9.1,7.5,12.5
		c0.4,1.1,1.9,1.1,2.4,0.1c2-3.9,2.9-8.7,3.2-13c6.2-1.4,10.8-7,10.8-13.6v-44C153,24.4,146.7,18.2,139,18.2z"/>
</g>
<g>
	<rect x="299.5" class="st0" width="22" height="126"/>
	<g>
		<rect x="445" y="36" class="st0" width="22" height="90"/>
		<rect x="445" class="st0" width="22" height="22"/>
	</g>
	<g>
		<path class="st0" d="M263.8,36v9.5c-2.4-2.3-5-4.3-7.8-6c-6.7-4.1-14.5-6.4-22.7-6.4c-25.1,0-45.5,21.5-45.5,48s20.4,48,45.5,48
			c8.3,0,16-2.3,22.7-6.4c2.8-1.7,5.4-3.8,7.8-6v9.5h20V36H263.8z M263.8,84.8c-1.8,13.4-12.7,23.7-25.9,23.7
			c-14.4,0-26.1-12.3-26.1-27.5s11.7-27.5,26.1-27.5c13.2,0,24.1,10.3,25.9,23.7c0.2,1.2,0.2,2.5,0.2,3.8S263.9,83.5,263.8,84.8z"/>
	</g>
	<g>
		<path class="st0" d="M409.3,36v9.5c-2.4-2.3-5-4.3-7.8-6c-6.7-4.1-14.5-6.4-22.7-6.4c-25.1,0-45.5,21.5-45.5,48s20.3,48,45.5,48
			c8.3,0,16-2.3,22.7-6.4c2.8-1.7,5.4-3.8,7.8-6v9.5h20V36H409.3z M409.3,84.8c-1.7,13.4-12.7,23.7-25.9,23.7
			c-14.4,0-26.1-12.3-26.1-27.5s11.7-27.5,26.1-27.5c13.2,0,24.1,10.3,25.9,23.7c0.2,1.2,0.2,2.5,0.2,3.8S409.5,83.5,409.3,84.8z"/>
	</g>
</g>
</svg>
